<svg width="935" height="52" viewBox="0 0 935 52" fill="none" xmlns="http://www.w3.org/2000/svg">
<g clip-path="url(#clip0_60_295)">
<path d="M0.139893 26.08C0.139893 26.08 136.14 -13.14 208.14 5.55002C280.14 24.24 274.14 58.4 343.14 44.22C412.14 30.04 445.14 -3.46998 502.14 5.55002C559.14 14.57 609.14 50.47 651.64 38.64C694.14 26.82 806.14 -7.33998 833.14 5.55002C835.5 6.68002 843.26 11.38 846.18 20.1C849.74 30.72 845.81 47 835.14 50C827.66 52.1 817.22 47.58 815.14 40C813.34 33.44 818.01 25.39 824.14 22C837.11 14.82 851.87 31.13 878.14 38C890.54 41.24 909.08 43.32 934.14 36.49" stroke="#5C4033" stroke-miterlimit="10"/>
</g>
<defs>
<clipPath id="clip0_60_295">
<rect width="934.27" height="51.02" fill="white"/>
</clipPath>
</defs>
</svg>
