<svg width="1921" height="521" viewBox="0 0 1921 521" fill="none" xmlns="http://www.w3.org/2000/svg">
<path d="M0 515.857C0 515.857 74.2691 540.61 155.031 468.743C155.031 468.743 160.799 465.325 165.127 477.296L191.088 451.635C191.088 451.635 215.61 443.082 235.793 408.857L257.425 403.72L313.666 336.99C313.666 336.99 323.762 335.281 325.202 343.835C325.202 343.835 351.163 318.174 355.491 318.174C359.82 318.174 367.027 297.639 387.22 289.085L403.085 271.978L436.253 321.602C436.253 321.602 453.557 337 462.214 364.38C462.214 364.38 504.039 390.041 511.247 417.421V395.978C511.247 395.978 492.503 369.506 485.286 366.089C485.286 366.089 501.15 330.155 440.581 301.067C440.581 301.067 452.723 301.067 415.643 257.434L436.253 232.627H445.218L463.653 196.694L470.861 210.384L482.397 222.365C482.397 222.365 485.286 239.472 486.725 239.472C488.165 239.472 489.614 273.697 504.029 275.406C518.454 277.115 531.43 314.757 531.43 331.875L554.502 350.701L545.845 328.457C545.845 328.457 555.316 290.815 507.315 257.445L522.108 256.601L534.309 248.026C534.309 248.026 609.303 323.31 606.414 337C605.709 340.343 602.433 338.997 597.876 335.057C593.319 331.116 557.381 285.668 557.381 285.668L584.781 331.864C584.781 331.864 583.342 360.953 600.646 366.089C617.95 371.225 633.814 362.672 651.118 384.915C668.422 407.159 684.287 429.403 684.287 429.403C684.287 429.403 710.248 431.111 718.895 467.045C718.895 467.045 733.319 487.58 727.551 509.823C727.551 509.823 740.368 478.247 728.912 455.533C728.912 455.533 717.455 434.539 717.455 427.694C717.455 427.694 659.765 417.432 641.022 328.457C641.022 328.457 633.814 306.214 571.796 271.989C571.796 271.989 609.293 261.727 620.829 220.657L648.229 212.103L628.036 248.037C628.036 248.037 643.901 249.745 662.644 210.395C662.644 210.395 661.205 186.442 678.509 181.306L690.045 150.509C690.045 150.509 694.373 148.8 716.006 109.439L724.663 88.9039C724.663 88.9039 723.918 102.594 737.995 88.9039C737.995 88.9039 753.512 46.1253 778.024 3.3467C778.024 3.3467 792.449 -17.1883 793.888 63.2324C793.888 63.2324 821.289 155.635 802.545 172.742C802.545 172.742 775.145 201.83 778.024 229.21C778.024 229.21 753.503 249.745 776.584 304.495L780.913 338.72C780.913 338.72 788.12 362.672 786.681 244.609C786.681 244.609 811.202 201.83 825.617 198.413C840.042 194.996 850.139 153.926 815.521 90.6124L801.096 18.7453L896.273 153.915C896.273 153.915 873.201 213.801 880.408 225.782C880.408 225.782 891.944 188.14 904.93 186.432C904.93 186.432 910.698 237.764 936.659 237.764C962.62 237.764 975.595 314.757 975.595 314.757C975.595 314.757 1015.97 384.905 1039.05 395.178C1062.12 405.44 1122.69 496.133 1122.69 496.133L1111.16 453.355L1069.33 396.886L1016.7 339.147L997.228 270.27L938.098 201.83L917.905 138.517C917.905 138.517 987.131 198.402 1008.76 194.985C1030.4 191.568 1039.05 126.546 1039.05 126.546L1059.25 109.439L1088.09 58.1067C1088.09 58.1067 1109.72 124.837 1142.89 133.391C1142.89 133.391 1152.98 179.587 1112.6 200.122L1102.5 215.52H1090.96L1093.87 260.499L1148.65 194.996L1154.42 129.974C1154.42 129.974 1167.4 141.955 1171.73 141.955L1157.3 201.841C1157.3 201.841 1196.12 237.807 1187.52 256.612C1187.52 256.612 1160.18 287.398 1216.42 313.059C1216.42 313.059 1242.38 347.284 1242.38 362.682C1242.38 378.081 1242.38 316.946 1242.38 316.946L1223.64 297.671C1223.64 297.671 1193.35 254.892 1212.1 222.387L1173.17 205.28L1183.26 148.811C1183.26 148.811 1222.2 208.697 1265.46 157.365C1265.46 157.365 1284.21 138.538 1313.06 230.94C1313.06 230.94 1353.43 249.767 1356.32 294.254C1359.21 338.741 1375.99 256.644 1364 256.622C1364 256.622 1340.46 248.047 1346.23 220.678L1362.09 234.368L1404.41 257.466C1404.41 257.466 1412.56 354.14 1441.4 359.276L1471.69 362.693C1471.69 362.693 1533.7 426.007 1559.66 395.199C1559.66 395.199 1558.22 468.775 1613.02 463.638C1613.02 463.638 1575.53 436.258 1571.2 378.081C1571.2 378.081 1523.6 393.48 1487.56 345.575L1438.52 335.313C1438.52 335.313 1416.27 292.535 1420.19 257.455L1429.88 246.328C1429.88 246.328 1444.3 249.745 1465.93 297.66C1465.93 297.66 1499.1 331.885 1525.06 331.885L1546.7 304.505C1546.7 304.505 1558.23 319.904 1572.66 342.147C1587.08 364.391 1602.95 360.974 1602.95 360.974L1692.36 465.347C1692.36 465.347 1790.91 499.358 1811.58 520H1921" stroke="#5C4033" stroke-miterlimit="10"/>
</svg>
